<svg id="Capa_1" data-name="Capa 1" xmlns="http://www.w3.org/2000/svg" viewBox="0 0 19.23 28.18"><defs><style>.cls-1{fill:#fff;}</style></defs><path class="cls-1" d="M13.9937,40.428v-1.86a1.2035,1.2035,0,0,1,1.2-1.2h18.03v4.26h-18.03A1.2035,1.2035,0,0,1,13.9937,40.428Z" transform="translate(-13.9937 -13.448)"/><path class="cls-1" d="M13.9937,28.4681v-1.86a1.2035,1.2035,0,0,1,1.2-1.2h18.03v4.26h-18.03A1.2035,1.2035,0,0,1,13.9937,28.4681Z" transform="translate(-13.9937 -13.448)"/><path class="cls-1" d="M13.9937,16.508v-1.86a1.2035,1.2035,0,0,1,1.2-1.2h18.03v4.26h-18.03A1.2036,1.2036,0,0,1,13.9937,16.508Z" transform="translate(-13.9937 -13.448)"/></svg>