<svg id="Capa_1" data-name="Capa 1" xmlns="http://www.w3.org/2000/svg" viewBox="0 0 19.23 28.18"><defs><style>.cls-1{fill:#fff;}</style></defs><path class="cls-1" d="M32.23,12.62v1.86a1.2035,1.2035,0,0,1-1.2,1.2H13V11.42H31.03A1.2035,1.2035,0,0,1,32.23,12.62Z" transform="translate(-13 -11.42)"/><path class="cls-1" d="M32.23,24.58v1.86a1.2035,1.2035,0,0,1-1.2,1.2H13V23.38H31.03A1.2035,1.2035,0,0,1,32.23,24.58Z" transform="translate(-13 -11.42)"/><path class="cls-1" d="M32.23,36.54V38.4a1.2035,1.2035,0,0,1-1.2,1.2H13V35.34H31.03A1.2035,1.2035,0,0,1,32.23,36.54Z" transform="translate(-13 -11.42)"/></svg>