<svg id="Capa_1" data-name="Capa 1" xmlns="http://www.w3.org/2000/svg" viewBox="0 0 45 45"><defs><style>.cls-1{fill:#fff;}</style></defs><path class="cls-1" d="M25,2.5A22.5,22.5,0,1,0,47.5,25.0046,22.5024,22.5024,0,0,0,25,2.5Zm.1566,43.3518A20.9715,20.9715,0,1,1,46.1277,24.8757,20.9795,20.9795,0,0,1,25.1566,45.8518Z" transform="translate(-2.5 -2.5)"/><path class="cls-1" d="M36.8649,14.1367a27.8824,27.8824,0,0,0-6.88-2.1334.1045.1045,0,0,0-.1106.0523,19.4254,19.4254,0,0,0-.8567,1.7593,25.74,25.74,0,0,0-7.7271,0,17.7833,17.7833,0,0,0-.87-1.7593.1086.1086,0,0,0-.11-.0523,27.799,27.799,0,0,0-6.88,2.1334.0987.0987,0,0,0-.0453.0389A28.5158,28.5158,0,0,0,8.3919,33.41a.116.116,0,0,0,.0439.0791,28.0287,28.0287,0,0,0,8.44,4.2654.1092.1092,0,0,0,.1186-.0388,20.0386,20.0386,0,0,0,1.7266-2.8079.1071.1071,0,0,0-.0586-.1489,18.4552,18.4552,0,0,1-2.6366-1.2564.1084.1084,0,0,1-.0106-.18c.1771-.1327.3544-.2709.5236-.41a.1044.1044,0,0,1,.1092-.0148,19.9919,19.9919,0,0,0,16.9863,0,.1042.1042,0,0,1,.1106.0135c.1692.1394.3464.2789.5249.4116a.1083.1083,0,0,1-.0093.18,17.3206,17.3206,0,0,1-2.6379,1.2551.1079.1079,0,0,0-.0573.15,22.4842,22.4842,0,0,0,1.7253,2.8065.107.107,0,0,0,.1186.04,27.9356,27.9356,0,0,0,8.4531-4.2654.1079.1079,0,0,0,.044-.0778A28.3283,28.3283,0,0,0,36.9089,14.177.086.086,0,0,0,36.8649,14.1367Zm-17.318,15.434a3.2481,3.2481,0,0,1-3.0376-3.4059,3.23,3.23,0,0,1,3.0376-3.4059,3.2125,3.2125,0,0,1,3.0375,3.4059A3.23,3.23,0,0,1,19.5469,29.5707Zm11.2309,0A3.2481,3.2481,0,0,1,27.74,26.1648a3.23,3.23,0,0,1,3.0375-3.4059,3.2126,3.2126,0,0,1,3.0376,3.4059A3.2217,3.2217,0,0,1,30.7778,29.5707Z" transform="translate(-2.5 -2.5)"/></svg>