<svg id="Capa_1" data-name="Capa 1" xmlns="http://www.w3.org/2000/svg" viewBox="0 0 45 45"><defs><style>.cls-1{fill:#fff;}</style></defs><path class="cls-1" d="M25,2.5A22.5,22.5,0,1,0,47.5,25.0046,22.5024,22.5024,0,0,0,25,2.5Zm.1566,43.3518A20.9715,20.9715,0,1,1,46.1277,24.8757,20.9795,20.9795,0,0,1,25.1566,45.8518Z" transform="translate(-2.5 -2.5)"/><path class="cls-1" d="M27.5716,40.5037V26.25h4.7853l.7164-5.5547H27.5716V17.1491c0-1.6082.4468-2.7043,2.7536-2.7043l2.9421-.0013V9.4754A39.4566,39.4566,0,0,0,28.98,9.2568c-4.2418,0-7.1459,2.5885-7.1459,7.3425v4.0965H17.0367v5.5548h4.7975V40.5039l5.7374,0Z" transform="translate(-2.5 -2.5)"/></svg>