<svg id="Capa_1" data-name="Capa 1" xmlns="http://www.w3.org/2000/svg" viewBox="0 0 45 45"><defs><style>.cls-1{fill:#fff;}</style></defs><path class="cls-1" d="M25,2.5A22.5,22.5,0,1,0,47.5,25.0046,22.5024,22.5024,0,0,0,25,2.5Zm.1566,43.3518A20.9715,20.9715,0,1,1,46.1277,24.8757,20.9795,20.9795,0,0,1,25.1566,45.8518Z" transform="translate(-2.5 -2.5)"/><path class="cls-1" d="M30.7412,11.5362H19.5628a7.6318,7.6318,0,0,0-7.6326,7.631V30.3433a7.6318,7.6318,0,0,0,7.6326,7.631H30.7412a7.6317,7.6317,0,0,0,7.6325-7.631V19.1672A7.6317,7.6317,0,0,0,30.7412,11.5362ZM35.9385,30.54a5.066,5.066,0,0,1-5.0665,5.0655H19.432A5.0661,5.0661,0,0,1,14.3654,30.54V19.1021a5.0661,5.0661,0,0,1,5.0666-5.0655h11.44a5.066,5.066,0,0,1,5.0665,5.0655Z" transform="translate(-2.5 -2.5)"/><path class="cls-1" d="M25.152,17.9611a6.86,6.86,0,1,0,6.8612,6.86A6.8606,6.8606,0,0,0,25.152,17.9611Zm0,11.3066A4.4468,4.4468,0,1,1,29.6,24.8209,4.4472,4.4472,0,0,1,25.152,29.2677Z" transform="translate(-2.5 -2.5)"/><circle class="cls-1" cx="29.742" cy="15.2002" r="1.5982"/></svg>