<svg id="Capa_1" data-name="Capa 1" xmlns="http://www.w3.org/2000/svg" viewBox="0 0 45 45"><defs><style>.cls-1{fill:#fff;}</style></defs><path class="cls-1" d="M25,2.5A22.5,22.5,0,1,0,47.5,25.0046,22.5024,22.5024,0,0,0,25,2.5Zm.1566,43.3518A20.9715,20.9715,0,1,1,46.1277,24.8757,20.9795,20.9795,0,0,1,25.1566,45.8518Z" transform="translate(-2.5 -2.5)"/><path class="cls-1" d="M38.5577,12.0011,10.1066,23.0861a1.037,1.037,0,0,0,.0829,1.9611l7.23,2.1343,2.6981,8.56a1.2415,1.2415,0,0,0,2.071.4954l3.7379-3.816,7.3343,5.3825a1.5306,1.5306,0,0,0,2.4036-.92l4.8576-23.219a1.4636,1.4636,0,0,0-1.9643-1.6631Zm-3.567,5.1528L21.7756,28.8381a.7087.7087,0,0,0-.2353.4522l-.5087,4.522a.1371.1371,0,0,1-.2671.0256l-2.0938-6.7444a.71.71,0,0,1,.3041-.8134l15.6061-9.6773a.3446.3446,0,0,1,.41.5511Zm0,0" transform="translate(-2.5 -2.5)"/></svg>