<svg id="Capa_1" data-name="Capa 1" xmlns="http://www.w3.org/2000/svg" viewBox="0 0 45 45"><defs><style>.cls-1{fill:#fff;}</style></defs><path class="cls-1" d="M25,2.5A22.5,22.5,0,1,0,47.5,25.0046,22.5024,22.5024,0,0,0,25,2.5Zm.1566,43.3518A20.9715,20.9715,0,1,1,46.1277,24.8757,20.9795,20.9795,0,0,1,25.1566,45.8518Z" transform="translate(-2.5 -2.5)"/><path class="cls-1" d="M41.3245,16.3226a12.6662,12.6662,0,0,1-3.638.9972,6.3524,6.3524,0,0,0,2.785-3.5037,12.6831,12.6831,0,0,1-4.0224,1.5368,6.34,6.34,0,0,0-10.7938,5.7762A17.9838,17.9838,0,0,1,12.6,14.5122a6.3389,6.3389,0,0,0,1.96,8.4551,6.31,6.31,0,0,1-2.869-.7922c-.0006.0265-.0006.0529-.0006.08a6.3373,6.3373,0,0,0,5.0811,6.21,6.3461,6.3461,0,0,1-2.86.1085,6.34,6.34,0,0,0,5.9171,4.398,12.71,12.71,0,0,1-7.8668,2.711,12.8426,12.8426,0,0,1-1.511-.0886,17.9307,17.9307,0,0,0,9.71,2.8455c11.6509,0,18.0223-9.65,18.0223-18.0188q0-.4117-.0184-.8193A12.8688,12.8688,0,0,0,41.3245,16.3226Z" transform="translate(-2.5 -2.5)"/></svg>